<svg width="285" height="179" viewBox="0 0 285 179" fill="none" xmlns="http://www.w3.org/2000/svg">
<path d="M48.2 108C35.18 108 22.82 103.32 22.16 81.48C21.92 73.86 22.28 63.78 23.12 55.62H41.12C40.76 63.48 40.58 73.08 40.88 79.98C41.18 87 42.56 91.02 48.2 91.02C53.84 91.02 55.22 87 55.52 79.98C55.82 73.08 55.64 63.48 55.28 55.62H73.28C74.12 63.78 74.48 73.86 74.24 81.48C73.58 103.32 61.22 108 48.2 108ZM80.3858 106.8C78.7058 93.6 78.3458 80.7 79.4258 67.5H97.0058L97.0658 71.34C100.246 68.4 104.746 66.66 109.666 66.66C126.286 66.66 125.386 88.44 123.346 106.8H106.846C107.446 87.48 106.366 84.12 103.366 83.58C101.086 83.16 99.1058 83.7 97.1258 84.9C97.0058 92.16 96.7658 99.42 96.3458 106.8H80.3858ZM130.716 106.8C129.756 93.54 129.516 80.76 129.996 67.5H147.636C148.116 80.76 147.876 93.54 146.916 106.8H130.716ZM138.816 66.18C132.696 66.18 129.096 62.82 129.096 57.54C129.096 52.38 132.696 48.9 138.816 48.9C144.936 48.9 148.536 52.44 148.536 57.54C148.536 62.76 144.936 66.18 138.816 66.18ZM178.14 107.1H171.24H155.64C153.24 89.34 153.06 73.44 154.26 55.68C160.14 55.38 165.36 55.26 171.24 55.26H175.44C192.72 55.74 201.06 60.6 201.06 71.58C201.06 75.12 200.04 78.48 196.62 81.12C200.58 83.4 202.74 86.76 202.74 92.16C202.74 102.96 193.62 107.1 178.14 107.1ZM171.06 75.78C172.68 75.9 174.3 75.9 175.92 75.9C179.94 75.84 183.12 75.3 183.12 72.84C183.12 70.32 179.94 70.02 176.1 69.96C174.48 69.96 172.74 70.02 171.12 70.14C171 72.06 171 73.92 171.06 75.78ZM171.36 86.94C171.24 89.04 171.24 91.2 171.36 93.36C173.04 93.48 174.78 93.48 176.4 93.48C180.84 93.42 184.08 92.94 184.08 90.06C184.08 87.36 180.84 86.94 176.58 86.94H172.5H171.36ZM208.119 106.8C207.159 93.54 206.919 80.76 207.399 67.5H225.039C225.519 80.76 225.279 93.54 224.319 106.8H208.119ZM216.219 66.18C210.099 66.18 206.499 62.82 206.499 57.54C206.499 52.38 210.099 48.9 216.219 48.9C222.339 48.9 225.939 52.44 225.939 57.54C225.939 62.76 222.339 66.18 216.219 66.18ZM229.442 93.84C233.582 89.7 240.362 84.96 247.262 80.58C241.382 80.58 234.602 80.88 230.222 81.3L230.042 67.38C241.202 66.48 255.842 66.66 267.002 67.5V80.46C263.162 84.66 256.502 89.64 249.602 93.72C255.782 93.78 263.282 93.48 267.962 93L268.142 106.86C257.462 107.82 240.122 107.64 229.442 106.68V93.84Z" fill="currentColor"/>
<g clip-path="url(#clip0_296_2596)">
<path d="M260.547 53.5838C260.487 53.8201 260.356 54.032 260.171 54.1901C259.986 54.3482 259.756 54.4447 259.513 54.4661L254.526 54.9429L251.688 59.071C251.55 59.2698 251.354 59.4215 251.126 59.5056C250.899 59.5896 250.651 59.6021 250.417 59.5413C250.182 59.4805 249.971 59.3494 249.813 59.1655C249.656 58.9816 249.558 58.7538 249.533 58.5126L249.057 53.5254L244.928 50.6879C244.729 50.5493 244.578 50.3531 244.494 50.1257C244.409 49.8984 244.397 49.6507 244.458 49.416C244.519 49.1814 244.65 48.9709 244.834 48.813C245.017 48.6551 245.245 48.5572 245.486 48.5325L250.474 48.0564L253.311 43.9276C253.45 43.7288 253.646 43.5771 253.873 43.4931C254.101 43.409 254.348 43.3965 254.583 43.4573C254.818 43.5181 255.028 43.6492 255.186 43.8331C255.344 44.017 255.442 44.2448 255.467 44.486L255.943 49.4734L260.071 52.3107C260.273 52.4472 260.427 52.6432 260.512 52.8714C260.598 53.0995 260.61 53.3485 260.547 53.5838Z" fill="currentColor"/>
</g>
<path d="M62.5262 122.642C62.5262 122.642 66.0219 115.771 70.0262 115.642C70.2214 115.636 70.331 115.643 70.5262 115.643C71.0262 115.643 71.4476 115.551 72.0262 115.643C72.6362 115.739 73.0053 115.811 73.5262 116.142C73.9922 116.439 74.288 116.644 74.5262 117.142C74.9558 118.041 74.5083 118.771 74.0262 119.642C73.4209 120.736 72.473 120.826 71.5262 121.642C69.6444 123.266 68.5487 124.178 67.0262 126.142C66.1637 127.255 65.3163 127.765 65.0262 129.142C64.8653 129.907 64.8568 130.38 65.0262 131.142C65.2157 131.995 65.5716 132.397 66.0262 133.142C66.8203 134.444 67.4018 135.112 68.5262 136.142C70.2052 137.681 71.4713 138.161 73.5262 139.142C78.228 141.387 81.3886 141.276 86.5262 142.142C92.3313 143.122 95.6482 143.317 101.526 143.642C111.471 144.194 117.105 144.025 127.026 143.143C134.095 142.514 145.026 140.642 145.026 140.642L175.026 134.642L202.526 125.642L219.026 118.142L233.526 108.642C233.526 108.642 235.452 107.636 236.526 108.142C237.409 108.559 237.877 109.178 238.026 110.142C238.149 110.938 237.026 112.143 237.026 112.143C237.026 112.143 231.592 117.769 227.526 120.642C222.677 124.07 214.026 127.642 214.026 127.642L192.026 136.142L175.026 141.142L150.526 146.142L140.026 147.642L125.026 149.142L107.026 149.642L94.0262 148.642L88.0262 148.142L80.0262 146.642L72.5262 144.142C72.5262 144.142 68.6589 143.019 66.5262 141.642C64.7823 140.517 63.8793 139.716 62.5262 138.142C61.8898 137.402 61.5504 136.966 61.0262 136.142L61.0142 136.123C60.3183 135.03 59.9092 134.387 59.5262 133.142C58.8372 130.903 58.8121 129.374 59.5262 127.142C60.17 125.131 62.5262 122.642 62.5262 122.642Z" fill="currentColor" transform="translate(0 10)"/>
<path d="M283.125 106.25C283.423 106.25 283.71 106.131 283.92 105.92C284.131 105.71 284.25 105.423 284.25 105.125C284.25 104.827 284.131 104.54 283.92 104.33C283.71 104.119 283.423 104 283.125 104C282.827 104 282.54 104.119 282.33 104.33C282.119 104.54 282 104.827 282 105.125C282 105.423 282.119 105.71 282.33 105.92C282.54 106.131 282.827 106.25 283.125 106.25Z" fill="#A2DDFF"/>
<path d="M252.125 160.25C252.423 160.25 252.71 160.131 252.92 159.92C253.131 159.71 253.25 159.423 253.25 159.125C253.25 158.827 253.131 158.54 252.92 158.33C252.71 158.119 252.423 158 252.125 158C251.827 158 251.54 158.119 251.33 158.33C251.119 158.54 251 158.827 251 159.125C251 159.423 251.119 159.71 251.33 159.92C251.54 160.131 251.827 160.25 252.125 160.25Z" fill="#A2DDFF"/>
<path d="M113.125 2.25C113.423 2.25 113.71 2.13147 113.92 1.9205C114.131 1.70952 114.25 1.42337 114.25 1.125C114.25 0.826631 114.131 0.540483 113.92 0.329505C113.71 0.118526 113.423 0 113.125 0C112.827 0 112.54 0.118526 112.33 0.329505C112.119 0.540483 112 0.826631 112 1.125C112 1.42337 112.119 1.70952 112.33 1.9205C112.54 2.13147 112.827 2.25 113.125 2.25Z" fill="#A2DDFF"/>
<path d="M50.125 161.25C50.4234 161.25 50.7095 161.131 50.9205 160.92C51.1315 160.71 51.25 160.423 51.25 160.125C51.25 159.827 51.1315 159.54 50.9205 159.33C50.7095 159.119 50.4234 159 50.125 159C49.8266 159 49.5405 159.119 49.3295 159.33C49.1185 159.54 49 159.827 49 160.125C49 160.423 49.1185 160.71 49.3295 160.92C49.5405 161.131 49.8266 161.25 50.125 161.25Z" fill="#A2DDFF"/>
<path d="M224.125 4.25C224.423 4.25 224.71 4.13147 224.92 3.9205C225.131 3.70952 225.25 3.42337 225.25 3.125C225.25 2.82663 225.131 2.54048 224.92 2.3295C224.71 2.11853 224.423 2 224.125 2C223.827 2 223.54 2.11853 223.33 2.3295C223.119 2.54048 223 2.82663 223 3.125C223 3.42337 223.119 3.70952 223.33 3.9205C223.54 4.13147 223.827 4.25 224.125 4.25Z" fill="#A2DDFF"/>
<path d="M36.125 32.25C36.4234 32.25 36.7095 32.1315 36.9205 31.9205C37.1315 31.7095 37.25 31.4234 37.25 31.125C37.25 30.8266 37.1315 30.5405 36.9205 30.3295C36.7095 30.1185 36.4234 30 36.125 30C35.8266 30 35.5405 30.1185 35.3295 30.3295C35.1185 30.5405 35 30.8266 35 31.125C35 31.4234 35.1185 31.7095 35.3295 31.9205C35.5405 32.1315 35.8266 32.25 36.125 32.25Z" fill="#A2DDFF"/>
<path d="M1.125 124.25C1.42337 124.25 1.70952 124.131 1.9205 123.92C2.13147 123.71 2.25 123.423 2.25 123.125C2.25 122.827 2.13147 122.54 1.9205 122.33C1.70952 122.119 1.42337 122 1.125 122C0.826631 122 0.540483 122.119 0.329505 122.33C0.118526 122.54 0 122.827 0 123.125C0 123.423 0.118526 123.71 0.329505 123.92C0.540483 124.131 0.826631 124.25 1.125 124.25Z" fill="#A2DDFF"/>
<path d="M168.125 178.25C168.423 178.25 168.71 178.131 168.92 177.92C169.131 177.71 169.25 177.423 169.25 177.125C169.25 176.827 169.131 176.54 168.92 176.33C168.71 176.119 168.423 176 168.125 176C167.827 176 167.54 176.119 167.33 176.33C167.119 176.54 167 176.827 167 177.125C167 177.423 167.119 177.71 167.33 177.92C167.54 178.131 167.827 178.25 168.125 178.25Z" fill="#A2DDFF"/>
<defs>
<clipPath id="clip0_296_2596">
<rect width="19" height="19" fill="currentColor" transform="translate(243 42)"/>
</clipPath>
</defs>
</svg>
