<svg xmlns="http://www.w3.org/2000/svg" width="35" height="35" viewBox="0 0 35 35" fill="none">
  <path d="M24.7917 2.91668H18.9583V1.45834H16.0417V2.91668H10.2083C7.7921 2.91668 5.83334 4.87544 5.83334 7.29168V11.6667C5.83334 15.6937 9.09794 18.9583 13.125 18.9583H21.875C25.9021 18.9583 29.1667 15.6937 29.1667 11.6667V7.29168C29.1667 4.87544 27.208 2.91668 24.7917 2.91668ZM16.0417 10.9375C16.0417 12.1456 15.0623 13.125 13.8542 13.125C12.646 13.125 11.6667 12.1456 11.6667 10.9375C11.6667 9.72938 12.646 8.75001 13.8542 8.75001C15.0623 8.75001 16.0417 9.72938 16.0417 10.9375ZM23.3333 10.9375C23.3333 12.1456 22.3539 13.125 21.1458 13.125C19.9378 13.125 18.9583 12.1456 18.9583 10.9375C18.9583 9.72938 19.9378 8.75001 21.1458 8.75001C22.3539 8.75001 23.3333 9.72938 23.3333 10.9375ZM5.83334 32.0833C5.83334 25.64 11.0567 20.4167 17.5 20.4167C23.9434 20.4167 29.1667 25.64 29.1667 32.0833H5.83334Z" fill="#F3F4F6"/>
</svg>