<svg xmlns="http://www.w3.org/2000/svg" width="14" height="14" viewBox="0 0 14 14" fill="none">
  <path d="M1.66663 12.3335V8.3335C1.66663 5.38798 4.05444 3.00016 6.99996 3.00016C9.94549 3.00016 12.3333 5.38798 12.3333 8.3335V12.3335H13V13.6668H0.999964V12.3335H1.66663ZM2.99996 8.3335H4.3333C4.3333 6.86076 5.5272 5.66683 6.99996 5.66683V4.3335C4.79082 4.3335 2.99996 6.12436 2.99996 8.3335ZM6.33329 0.333496H7.66662V2.3335H6.33329V0.333496ZM12.1854 2.20524L13.1282 3.14805L11.714 4.56226L10.7712 3.61945L12.1854 2.20524ZM0.871704 3.14805L1.81451 2.20524L3.22872 3.61945L2.28592 4.56226L0.871704 3.14805Z" fill="#0080FF"/>
</svg>