<svg width="24" height="25" viewBox="0 0 24 25" fill="none" xmlns="http://www.w3.org/2000/svg">
<path d="M11.9959 21.8749C13.4538 21.8749 14.2506 20.8437 14.2506 19.3906H9.73657C9.73657 20.8437 10.5334 21.8749 11.9959 21.8749ZM19.3131 17.0093C18.5913 16.0577 17.1709 15.4999 17.1709 11.239C17.1709 6.86555 15.2397 5.10774 13.4397 4.68586C13.2709 4.64368 13.1491 4.58743 13.1491 4.4093V4.27336C13.1491 3.64524 12.6334 3.11555 12.0053 3.12024C11.3772 3.11086 10.8616 3.64524 10.8616 4.27336V4.4093C10.8616 4.58274 10.7397 4.64368 10.5709 4.68586C8.76626 5.11243 6.83969 6.86555 6.83969 11.239C6.83969 15.4999 5.41938 16.0531 4.69751 17.0093C4.23344 17.6234 4.67407 18.4999 5.44282 18.4999H18.5725C19.3366 18.4999 19.7772 17.6187 19.3131 17.0093Z" fill="#1A96FE"/>
</svg>
