<svg width="28" height="28" viewBox="0 0 28 28" fill="none" xmlns="http://www.w3.org/2000/svg">
<path fill-rule="evenodd" clip-rule="evenodd" d="M18.3239 5.00858C18.5427 5.22736 18.6655 5.52405 18.6655 5.83341C18.6655 6.14277 18.5427 6.43946 18.3239 6.65824L10.9821 14.0001L18.3239 21.3419C18.5365 21.5619 18.654 21.8566 18.6514 22.1625C18.6487 22.4684 18.526 22.7611 18.3097 22.9774C18.0934 23.1937 17.8008 23.3164 17.4949 23.319C17.189 23.3217 16.8943 23.2041 16.6743 22.9916L8.5076 14.8249C8.28888 14.6061 8.16602 14.3094 8.16602 14.0001C8.16602 13.6907 8.28888 13.394 8.5076 13.1752L16.6743 5.00858C16.893 4.78986 17.1897 4.66699 17.4991 4.66699C17.8085 4.66699 18.1052 4.78986 18.3239 5.00858Z" fill="#A4A8B0"/>
</svg>
