<svg xmlns="http://www.w3.org/2000/svg" width="28" height="28" viewBox="0 0 28 28" fill="none">
  <path fill-rule="evenodd" clip-rule="evenodd" d="M18.3249 5.0085C18.5436 5.22728 18.6665 5.52398 18.6665 5.83333C18.6665 6.14269 18.5436 6.43938 18.3249 6.65817L10.9831 14L18.3249 21.3418C18.5374 21.5619 18.655 21.8566 18.6524 22.1625C18.6497 22.4684 18.527 22.761 18.3107 22.9773C18.0944 23.1936 17.8018 23.3163 17.4959 23.319C17.19 23.3216 16.8953 23.204 16.6752 22.9915L8.50858 14.8248C8.28986 14.6061 8.16699 14.3094 8.16699 14C8.16699 13.6906 8.28986 13.3939 8.50858 13.1752L16.6752 5.0085C16.894 4.78978 17.1907 4.66692 17.5001 4.66692C17.8094 4.66692 18.1061 4.78978 18.3249 5.0085Z" fill="#1A96FE"/>
</svg>