<svg width="14" height="14" viewBox="0 0 14 14" fill="none" xmlns="http://www.w3.org/2000/svg">
<path d="M0 2.8V12.6C0 12.9713 0.163888 13.3274 0.455612 13.5899C0.747335 13.8525 1.143 14 1.55556 14H12.4444C12.857 14 13.2527 13.8525 13.5444 13.5899C13.8361 13.3274 14 12.9713 14 12.6V2.8C14 2.4287 13.8361 2.0726 13.5444 1.81005C13.2527 1.5475 12.857 1.4 12.4444 1.4H10.8889V0H9.33333V1.4H4.66667V0H3.11111V1.4H1.55556C1.143 1.4 0.747335 1.5475 0.455612 1.81005C0.163888 2.0726 0 2.4287 0 2.8ZM12.4444 12.6H1.55556V4.2H12.4444V12.6Z" fill="black"/>
</svg>
