<svg xmlns="http://www.w3.org/2000/svg" width="12" height="12" viewBox="0 0 12 12" fill="none">
  <path d="M10.6418 4.13789L7.66641 3.70547L6.33633 1.00898C6.3 0.935156 6.24023 0.875391 6.16641 0.839063C5.98125 0.747656 5.75625 0.823828 5.66367 1.00898L4.33359 3.70547L1.3582 4.13789C1.27617 4.14961 1.20117 4.18828 1.14375 4.24687C1.07433 4.31823 1.03608 4.41422 1.0374 4.51376C1.03871 4.6133 1.0795 4.70825 1.15078 4.77773L3.30352 6.87656L2.79492 9.84023C2.783 9.90918 2.79062 9.98008 2.81694 10.0449C2.84326 10.1097 2.88722 10.1659 2.94383 10.207C3.00044 10.2481 3.06744 10.2725 3.13723 10.2775C3.20701 10.2825 3.2768 10.2678 3.33867 10.2352L6 8.83594L8.66133 10.2352C8.73398 10.2738 8.81836 10.2867 8.89922 10.2727C9.10312 10.2375 9.24023 10.0441 9.20508 9.84023L8.69648 6.87656L10.8492 4.77773C10.9078 4.72031 10.9465 4.64531 10.9582 4.56328C10.9898 4.3582 10.8469 4.16836 10.6418 4.13789Z" fill="#0080FF"/>
</svg>