<svg width="25" height="25" viewBox="0 0 25 25" fill="none" xmlns="http://www.w3.org/2000/svg">
<path d="M9.72767 5.32633L3.90513 10.4213C3.40582 10.8583 3.7406 11.6343 4.4284 11.6343C4.84861 11.6343 5.18926 11.9489 5.18926 12.3371V15.5806C5.18926 18.371 5.18926 19.7662 6.12778 20.6331C7.06631 21.5 8.57684 21.5 11.5979 21.5H13.7341C16.7552 21.5 18.2657 21.5 19.2042 20.6331C20.1428 19.7662 20.1428 18.371 20.1428 15.5806V12.3371C20.1428 11.9489 20.4834 11.6343 20.9036 11.6343C21.5914 11.6343 21.9262 10.8583 21.4269 10.4213L15.6043 5.32633C14.2129 4.10878 13.5172 3.5 12.666 3.5C11.8148 3.5 11.1191 4.10878 9.72767 5.32633Z" stroke="white" stroke-width="2" stroke-linecap="round" stroke-linejoin="round"/>
<path d="M12.666 16.5H12.675" stroke="white" stroke-width="2" stroke-linecap="round" stroke-linejoin="round"/>
</svg>
