<svg xmlns="http://www.w3.org/2000/svg" width="12" height="13" viewBox="0 0 12 13" fill="none">
  <path d="M6 12.5C5.19023 12.5 4.40391 12.3418 3.66445 12.0289C2.94961 11.7266 2.30859 11.293 1.75781 10.7422C1.20703 10.1914 0.773438 9.55039 0.471094 8.83555C0.158203 8.09609 0 7.30977 0 6.5C0 6.2668 0.188672 6.07812 0.421875 6.07812C0.655078 6.07812 0.84375 6.2668 0.84375 6.5C0.84375 7.19609 0.979688 7.87109 1.24922 8.50742C1.50938 9.12148 1.88086 9.67344 2.3543 10.1469C2.82773 10.6203 3.37969 10.993 3.99375 11.252C4.62891 11.5203 5.30391 11.6562 6 11.6562C6.69609 11.6562 7.37109 11.5203 8.00742 11.2508C8.62148 10.9906 9.17344 10.6191 9.64688 10.1457C10.1203 9.67227 10.493 9.12031 10.752 8.50625C11.0203 7.87109 11.1563 7.19609 11.1563 6.5C11.1563 5.80391 11.0203 5.12891 10.7508 4.49258C10.4915 3.87999 10.1163 3.32329 9.6457 2.85313C9.17605 2.38193 8.61923 2.0066 8.00625 1.74805C7.37109 1.47969 6.69609 1.34375 6 1.34375C5.7668 1.34375 5.57813 1.15508 5.57813 0.921875C5.57813 0.688672 5.7668 0.5 6 0.5C6.80977 0.5 7.59609 0.658203 8.33555 0.971094C9.05039 1.27344 9.69141 1.70703 10.2422 2.25781C10.793 2.80859 11.2254 3.45078 11.5277 4.16445C11.8406 4.90391 11.9988 5.69023 11.9988 6.5C11.9988 7.30977 11.8406 8.09609 11.5277 8.83555C11.2266 9.55039 10.793 10.1914 10.2422 10.7422C9.69141 11.293 9.04922 11.7254 8.33555 12.0277C7.59609 12.3418 6.80977 12.5 6 12.5Z" fill="#A8A8A8"/>
</svg>