<svg xmlns="http://www.w3.org/2000/svg" width="50" height="50" viewBox="0 0 50 50" fill="none">
  <path d="M50 25C50 38.8071 38.8071 50 25 50C11.1929 50 0 38.8071 0 25C0 11.1929 11.1929 0 25 0C38.8071 0 50 11.1929 50 25ZM3.75 25C3.75 36.7361 13.2639 46.25 25 46.25C36.7361 46.25 46.25 36.7361 46.25 25C46.25 13.2639 36.7361 3.75 25 3.75C13.2639 3.75 3.75 13.2639 3.75 25Z" fill="#5584FF"/>
  <path d="M50 25C50 38.8071 38.8071 50 25 50C11.1929 50 0 38.8071 0 25C0 11.1929 11.1929 0 25 0C38.8071 0 50 11.1929 50 25ZM3.75 25C3.75 36.7361 13.2639 46.25 25 46.25C36.7361 46.25 46.25 36.7361 46.25 25C46.25 13.2639 36.7361 3.75 25 3.75C13.2639 3.75 3.75 13.2639 3.75 25Z" fill="#EFEFEF"/>
</svg>