<svg xmlns="http://www.w3.org/2000/svg" width="50" height="50" viewBox="0 0 50 50" fill="none">
  <path d="M50 25C50 38.8071 38.8071 50 25 50C11.1929 50 0 38.8071 0 25C0 11.1929 11.1929 0 25 0C38.8071 0 50 11.1929 50 25ZM3.75 25C3.75 36.7361 13.2639 46.25 25 46.25C36.7361 46.25 46.25 36.7361 46.25 25C46.25 13.2639 36.7361 3.75 25 3.75C13.2639 3.75 3.75 13.2639 3.75 25Z" fill="#0183F0"/>
  <path d="M1.875 25C0.839466 25 -0.00731745 25.8407 0.0702684 26.8733C0.392202 31.158 1.81436 35.299 4.21326 38.8893C6.96029 43.0005 10.8648 46.2048 15.4329 48.097C20.0011 49.9892 25.0277 50.4843 29.8773 49.5196C34.7268 48.555 39.1814 46.174 42.6777 42.6777C46.174 39.1814 48.555 34.7268 49.5196 29.8773C50.4843 25.0277 49.9892 20.0011 48.097 15.4329C46.2048 10.8648 43.0005 6.9603 38.8893 4.21326C35.299 1.81436 31.158 0.392203 26.8733 0.0702686C25.8407 -0.00731733 25 0.839466 25 1.875V1.875C25 2.91053 25.8411 3.74141 26.8726 3.83266C30.4148 4.14601 33.8326 5.34457 36.8059 7.33127C40.3004 9.66625 43.0241 12.985 44.6324 16.868C46.2408 20.7509 46.6616 25.0236 45.8417 29.1457C45.0218 33.2678 42.9979 37.0542 40.026 40.026C37.0542 42.9979 33.2678 45.0218 29.1457 45.8417C25.0236 46.6616 20.7509 46.2408 16.868 44.6324C12.985 43.0241 9.66625 40.3004 7.33127 36.8059C5.34457 33.8326 4.14601 30.4148 3.83266 26.8726C3.74141 25.8411 2.91053 25 1.875 25V25Z" fill="#EFEFEF"/>
</svg>