<svg width="20" height="20" viewBox="0 0 20 20" fill="none" xmlns="http://www.w3.org/2000/svg">
<path fill-rule="evenodd" clip-rule="evenodd" d="M10.8327 18.333C12.1641 18.333 13.2524 17.2922 13.3284 15.9799L13.3327 15.833V13.333L15.8327 13.333C17.1641 13.333 18.2524 12.2922 18.3284 10.9799L18.3327 10.833V4.16634C18.3327 2.83494 17.2919 1.74662 15.9796 1.67058L15.8327 1.66634L9.16602 1.66634C7.83462 1.66634 6.7463 2.70711 6.67026 4.01945L6.66602 4.16634V6.66634H4.16602C2.83461 6.66634 1.7463 7.70711 1.67026 9.01945L1.66602 9.16634L1.66602 15.833C1.66602 17.1644 2.70678 18.2527 4.01912 18.3288L4.16602 18.333H10.8327ZM15.8326 11.6665L13.3326 11.6665V9.16647C13.3326 7.83507 12.2918 6.74675 10.9794 6.67071L10.8326 6.66647H8.33255V4.16647C8.33255 3.73911 8.65425 3.38688 9.0687 3.33874L9.16589 3.33314H15.8326C16.2599 3.33314 16.6121 3.65484 16.6603 4.06929L16.6659 4.16647V10.8331C16.6659 11.2605 16.3442 11.6127 15.9297 11.6609L15.8326 11.6665ZM10.8326 16.667H4.16598C3.73862 16.667 3.38639 16.3453 3.33826 15.9308L3.33265 15.8336L3.33265 9.16698C3.33265 8.73961 3.65435 8.38739 4.0688 8.33925L4.16598 8.33364H6.66598L6.66598 10.8336C6.66598 12.165 7.70675 13.2534 9.01909 13.3294L9.16598 13.3336L11.666 13.3336V15.8336C11.666 16.261 11.3443 16.6132 10.9298 16.6614L10.8326 16.667ZM11.6659 11.6665L9.16589 11.6665C8.73852 11.6665 8.3863 11.3448 8.33816 10.9303L8.33255 10.8331V8.33314H10.8326C11.2599 8.33314 11.6121 8.65484 11.6603 9.06929L11.6659 9.16647V11.6665Z" fill="#009EF8"/>
</svg>
