<svg xmlns="http://www.w3.org/2000/svg" width="31" height="30" viewBox="0 0 31 30" fill="none">
  <path d="M27.1045 10.3447L19.666 9.26368L16.3408 2.52247C16.25 2.3379 16.1006 2.18849 15.916 2.09767C15.4531 1.86915 14.8906 2.05958 14.6592 2.52247L11.334 9.26368L3.89549 10.3447C3.69041 10.374 3.50291 10.4707 3.35935 10.6172C3.1858 10.7956 3.09017 11.0356 3.09347 11.2844C3.09676 11.5333 3.19872 11.7706 3.37693 11.9443L8.75877 17.1914L7.48728 24.6006C7.45747 24.773 7.47654 24.9502 7.54234 25.1123C7.60814 25.2743 7.71803 25.4147 7.85955 25.5175C8.00108 25.6203 8.16857 25.6814 8.34304 25.6938C8.51751 25.7063 8.69198 25.6696 8.84666 25.5879L15.5 22.0899L22.1533 25.5879C22.3349 25.6846 22.5459 25.7168 22.748 25.6817C23.2578 25.5938 23.6006 25.1104 23.5127 24.6006L22.2412 17.1914L27.623 11.9443C27.7695 11.8008 27.8662 11.6133 27.8955 11.4082C27.9746 10.8955 27.6172 10.4209 27.1045 10.3447ZM19.9765 16.4531L21.0342 22.6143L15.5 19.708L9.9658 22.6172L11.0234 16.4561L6.54685 12.0908L12.7344 11.1914L15.5 5.58692L18.2656 11.1914L24.4531 12.0908L19.9765 16.4531Z" fill="#B8B8B8"/>
</svg>