<svg width="21" height="20" viewBox="0 0 21 20" fill="none" xmlns="http://www.w3.org/2000/svg">
<path d="M1.5 10C1.5 5.75736 1.5 3.63604 2.81802 2.31802C4.13604 1 6.25736 1 10.5 1C14.7426 1 16.8639 1 18.182 2.31802C19.5 3.63604 19.5 5.75736 19.5 10C19.5 14.2426 19.5 16.3639 18.182 17.682C16.8639 19 14.7426 19 10.5 19C6.25736 19 4.13604 19 2.81802 17.682C1.5 16.3639 1.5 14.2426 1.5 10Z" stroke="#009EF8" stroke-width="1.5"/>
<path d="M13.4463 12.9454L15.41 14.909M14.4282 9.509C14.4282 7.06888 12.4501 5.09082 10.01 5.09082C7.56986 5.09082 5.5918 7.06888 5.5918 9.509C5.5918 11.9491 7.56986 13.9272 10.01 13.9272C12.4501 13.9272 14.4282 11.9491 14.4282 9.509Z" stroke="#009EF8" stroke-width="1.5" stroke-linecap="round" stroke-linejoin="round"/>
</svg>
