<svg width="22" height="22" viewBox="0 0 22 22" fill="none" xmlns="http://www.w3.org/2000/svg">
<path d="M18.7919 13.219C18.7237 13.4528 18.5843 13.6596 18.3932 13.8105C18.2021 13.9615 17.9687 14.0491 17.7255 14.0613L12.7235 14.3477L9.73095 18.3646C9.58482 18.558 9.383 18.7021 9.1526 18.7775C8.9222 18.8528 8.67426 18.8559 8.44208 18.7862C8.2099 18.7165 8.00461 18.5774 7.85379 18.3876C7.70297 18.1978 7.61384 17.9665 7.59838 17.7245L7.31271 12.7228L3.29504 9.73004C3.10163 9.58391 2.95757 9.38209 2.88221 9.15169C2.80686 8.92129 2.80382 8.67334 2.87351 8.44116C2.94319 8.20899 3.08227 8.0037 3.27205 7.85288C3.46182 7.70205 3.69321 7.61293 3.93513 7.59746L8.93683 7.3118L11.9296 3.29413C12.0758 3.10071 12.2776 2.95665 12.508 2.88129C12.7384 2.80594 12.9863 2.8029 13.2185 2.87259C13.4507 2.94228 13.656 3.08135 13.8068 3.27113C13.9576 3.46091 14.0467 3.6923 14.0622 3.93422L14.3486 8.93612L18.3655 11.9287C18.5619 12.0728 18.7084 12.2745 18.7848 12.5058C18.8613 12.737 18.8637 12.9863 18.7919 13.219Z" fill="#70B1F9"/>
</svg>
