<svg width="12" height="13" viewBox="0 0 12 13" fill="none" xmlns="http://www.w3.org/2000/svg">
<path d="M7.43077 7.53464V3.30414C7.42777 2.92413 7.27716 2.56017 7.01077 2.28914C6.86518 2.14486 6.69026 2.03357 6.49788 1.96283C6.3055 1.89209 6.10016 1.86355 5.89578 1.87914C5.52578 1.91537 5.18315 2.09006 4.93651 2.36823C4.68987 2.64639 4.55745 3.00748 4.56578 3.37914L4.57077 7.51914C4.20469 7.79411 3.92578 8.16893 3.76756 8.59857C3.60934 9.02822 3.57855 9.49441 3.67888 9.94113C3.7792 10.3879 4.00639 10.7961 4.33313 11.1168C4.65987 11.4376 5.07227 11.6571 5.52078 11.7491C5.67735 11.779 5.83638 11.794 5.99577 11.7941C6.62617 11.7943 7.23085 11.5443 7.67707 11.099C8.12329 10.6537 8.37458 10.0495 8.37578 9.41914C8.37652 9.05302 8.29142 8.69183 8.12731 8.36455C7.96319 8.03727 7.72463 7.75303 7.43077 7.53464ZM7.19078 10.8646C6.97362 11.0424 6.71963 11.1696 6.44722 11.2371C6.1748 11.3046 5.89079 11.3105 5.61577 11.2546C5.25078 11.182 4.9162 11.0009 4.65573 10.7351C4.39527 10.4692 4.22103 10.131 4.15577 9.76464C4.09078 9.42102 4.1233 9.06607 4.24967 8.73999C4.37604 8.41391 4.5912 8.12973 4.87077 7.91964C4.93102 7.87509 4.98002 7.81708 5.01388 7.75024C5.04773 7.6834 5.0655 7.60957 5.06578 7.53464V3.37914C5.06002 3.1348 5.14539 2.89706 5.30529 2.71221C5.46519 2.52736 5.68815 2.40863 5.93077 2.37914C5.95386 2.37499 5.97733 2.37332 6.00078 2.37414C6.2467 2.37649 6.48189 2.47522 6.65579 2.64913C6.82969 2.82303 6.92843 3.05822 6.93077 3.30414V7.53464C6.93105 7.60957 6.94882 7.6834 6.98267 7.75024C7.01653 7.81708 7.06553 7.87509 7.12578 7.91964C7.35301 8.0897 7.53857 8.30922 7.66842 8.56159C7.79827 8.81396 7.86901 9.09257 7.87527 9.37632C7.88153 9.66007 7.82316 9.94152 7.70457 10.1994C7.58598 10.4572 7.41028 10.6847 7.19078 10.8646Z" fill="#0080FF"/>
<path d="M6.94666 9.41868C6.94666 9.66931 6.8471 9.90967 6.66988 10.0869C6.49265 10.2641 6.25229 10.3637 6.00166 10.3637C5.75103 10.3637 5.51067 10.2641 5.33344 10.0869C5.15622 9.90967 5.05666 9.66931 5.05666 9.41868C5.05534 9.21202 5.12296 9.01081 5.24884 8.8469C5.37472 8.68299 5.55165 8.56573 5.75166 8.51368V3.53418C5.75166 3.46788 5.778 3.40429 5.82488 3.3574C5.87177 3.31052 5.93536 3.28418 6.00166 3.28418C6.06796 3.28418 6.13155 3.31052 6.17844 3.3574C6.22532 3.40429 6.25166 3.46788 6.25166 3.53418V8.51418C6.45111 8.56706 6.62745 8.68447 6.75317 8.84809C6.87889 9.01171 6.94693 9.21234 6.94666 9.41868Z" fill="#0080FF"/>
</svg>
