<svg xmlns="http://www.w3.org/2000/svg" width="12" height="12" viewBox="0 0 12 12" fill="none">
  <g clip-path="url(#clip0_95_5619)">
    <path d="M10.5872 4.81969C10.4105 4.635 10.2277 4.44469 10.1588 4.27734C10.095 4.12406 10.0912 3.87 10.0875 3.62391C10.0805 3.16641 10.073 2.64797 9.7125 2.2875C9.35203 1.92703 8.83359 1.91953 8.37609 1.9125C8.13 1.90875 7.87594 1.905 7.72266 1.84125C7.55578 1.77234 7.365 1.58953 7.18031 1.41281C6.85687 1.10203 6.48937 0.75 6 0.75C5.51063 0.75 5.14359 1.10203 4.81969 1.41281C4.635 1.58953 4.44469 1.77234 4.27734 1.84125C4.125 1.905 3.87 1.90875 3.62391 1.9125C3.16641 1.91953 2.64797 1.92703 2.2875 2.2875C1.92703 2.64797 1.92187 3.16641 1.9125 3.62391C1.90875 3.87 1.905 4.12406 1.84125 4.27734C1.77234 4.44422 1.58953 4.635 1.41281 4.81969C1.10203 5.14312 0.75 5.51063 0.75 6C0.75 6.48937 1.10203 6.85641 1.41281 7.18031C1.58953 7.365 1.77234 7.55531 1.84125 7.72266C1.905 7.87594 1.90875 8.13 1.9125 8.37609C1.91953 8.83359 1.92703 9.35203 2.2875 9.7125C2.64797 10.073 3.16641 10.0805 3.62391 10.0875C3.87 10.0912 4.12406 10.095 4.27734 10.1588C4.44422 10.2277 4.635 10.4105 4.81969 10.5872C5.14312 10.898 5.51063 11.25 6 11.25C6.48937 11.25 6.85641 10.898 7.18031 10.5872C7.365 10.4105 7.55531 10.2277 7.72266 10.1588C7.87594 10.095 8.13 10.0912 8.37609 10.0875C8.83359 10.0805 9.35203 10.073 9.7125 9.7125C10.073 9.35203 10.0805 8.83359 10.0875 8.37609C10.0912 8.13 10.095 7.87594 10.1588 7.72266C10.2277 7.55578 10.4105 7.365 10.5872 7.18031C10.898 6.85687 11.25 6.48937 11.25 6C11.25 5.51063 10.898 5.14359 10.5872 4.81969ZM10.0458 6.66141C9.82125 6.89578 9.58875 7.13813 9.46547 7.43578C9.34734 7.72172 9.34219 8.04844 9.3375 8.36484C9.33281 8.69297 9.32766 9.03656 9.18188 9.18188C9.03609 9.32719 8.69484 9.33281 8.36484 9.3375C8.04844 9.34219 7.72172 9.34734 7.43578 9.46547C7.13813 9.58875 6.89578 9.82125 6.66141 10.0458C6.42703 10.2703 6.1875 10.5 6 10.5C5.8125 10.5 5.57109 10.2694 5.33859 10.0458C5.10609 9.82219 4.86188 9.58875 4.56422 9.46547C4.27828 9.34734 3.95156 9.34219 3.63516 9.3375C3.30703 9.33281 2.96344 9.32766 2.81812 9.18188C2.67281 9.03609 2.66719 8.69484 2.6625 8.36484C2.65781 8.04844 2.65266 7.72172 2.53453 7.43578C2.41125 7.13813 2.17875 6.89578 1.95422 6.66141C1.72969 6.42703 1.5 6.1875 1.5 6C1.5 5.8125 1.73062 5.57109 1.95422 5.33859C2.17781 5.10609 2.41125 4.86188 2.53453 4.56422C2.65266 4.27828 2.65781 3.95156 2.6625 3.63516C2.66719 3.30703 2.67234 2.96344 2.81812 2.81812C2.96391 2.67281 3.30516 2.66719 3.63516 2.6625C3.95156 2.65781 4.27828 2.65266 4.56422 2.53453C4.86188 2.41125 5.10422 2.17875 5.33859 1.95422C5.57297 1.72969 5.8125 1.5 6 1.5C6.1875 1.5 6.42891 1.73062 6.66141 1.95422C6.89391 2.17781 7.13813 2.41125 7.43578 2.53453C7.72172 2.65266 8.04844 2.65781 8.36484 2.6625C8.69297 2.66719 9.03656 2.67234 9.18188 2.81812C9.32719 2.96391 9.33281 3.30516 9.3375 3.63516C9.34219 3.95156 9.34734 4.27828 9.46547 4.56422C9.58875 4.86188 9.82125 5.10422 10.0458 5.33859C10.2703 5.57297 10.5 5.8125 10.5 6C10.5 6.1875 10.2694 6.42891 10.0458 6.66141ZM5.625 6.375V3.75C5.625 3.65054 5.66451 3.55516 5.73484 3.48484C5.80516 3.41451 5.90054 3.375 6 3.375C6.09946 3.375 6.19484 3.41451 6.26517 3.48484C6.33549 3.55516 6.375 3.65054 6.375 3.75V6.375C6.375 6.47446 6.33549 6.56984 6.26517 6.64017C6.19484 6.71049 6.09946 6.75 6 6.75C5.90054 6.75 5.80516 6.71049 5.73484 6.64017C5.66451 6.56984 5.625 6.47446 5.625 6.375ZM6.5625 8.0625C6.5625 8.17375 6.52951 8.28251 6.4677 8.37501C6.40589 8.46751 6.31804 8.53961 6.21526 8.58218C6.11248 8.62476 5.99938 8.6359 5.89026 8.61419C5.78115 8.59249 5.68092 8.53891 5.60225 8.46025C5.52359 8.38158 5.47001 8.28135 5.44831 8.17224C5.4266 8.06312 5.43774 7.95002 5.48032 7.84724C5.52289 7.74446 5.59499 7.65661 5.68749 7.5948C5.77999 7.53299 5.88875 7.5 6 7.5C6.14918 7.5 6.29226 7.55926 6.39775 7.66475C6.50324 7.77024 6.5625 7.91332 6.5625 8.0625Z" fill="#1A96FE"/>
  </g>
  <defs>
    <clipPath id="clip0_95_5619">
      <rect width="12" height="12" fill="white"/>
    </clipPath>
  </defs>
</svg>