<svg width="285" height="179" viewBox="0 0 285 179" fill="none" xmlns="http://www.w3.org/2000/svg">
<path d="M48.2 108C35.18 108 22.82 103.32 22.16 81.48C21.92 73.86 22.28 63.78 23.12 55.62H41.12C40.76 63.48 40.58 73.08 40.88 79.98C41.18 87 42.56 91.02 48.2 91.02C53.84 91.02 55.22 87 55.52 79.98C55.82 73.08 55.64 63.48 55.28 55.62H73.28C74.12 63.78 74.48 73.86 74.24 81.48C73.58 103.32 61.22 108 48.2 108ZM80.3858 106.8C78.7058 93.6 78.3458 80.7 79.4258 67.5H97.0058L97.0658 71.34C100.246 68.4 104.746 66.66 109.666 66.66C126.286 66.66 125.386 88.44 123.346 106.8H106.846C107.446 87.48 106.366 84.12 103.366 83.58C101.086 83.16 99.1058 83.7 97.1258 84.9C97.0058 92.16 96.7658 99.42 96.3458 106.8H80.3858ZM130.716 106.8C129.756 93.54 129.516 80.76 129.996 67.5H147.636C148.116 80.76 147.876 93.54 146.916 106.8H130.716ZM138.816 66.18C132.696 66.18 129.096 62.82 129.096 57.54C129.096 52.38 132.696 48.9 138.816 48.9C144.936 48.9 148.536 52.44 148.536 57.54C148.536 62.76 144.936 66.18 138.816 66.18ZM178.14 107.1H171.24H155.64C153.24 89.34 153.06 73.44 154.26 55.68C160.14 55.38 165.36 55.26 171.24 55.26H175.44C192.72 55.74 201.06 60.6 201.06 71.58C201.06 75.12 200.04 78.48 196.62 81.12C200.58 83.4 202.74 86.76 202.74 92.16C202.74 102.96 193.62 107.1 178.14 107.1ZM171.06 75.78C172.68 75.9 174.3 75.9 175.92 75.9C179.94 75.84 183.12 75.3 183.12 72.84C183.12 70.32 179.94 70.02 176.1 69.96C174.48 69.96 172.74 70.02 171.12 70.14C171 72.06 171 73.92 171.06 75.78ZM171.36 86.94C171.24 89.04 171.24 91.2 171.36 93.36C173.04 93.48 174.78 93.48 176.4 93.48C180.84 93.42 184.08 92.94 184.08 90.06C184.08 87.36 180.84 86.94 176.58 86.94H172.5H171.36ZM208.119 106.8C207.159 93.54 206.919 80.76 207.399 67.5H225.039C225.519 80.76 225.279 93.54 224.319 106.8H208.119ZM216.219 66.18C210.099 66.18 206.499 62.82 206.499 57.54C206.499 52.38 210.099 48.9 216.219 48.9C222.339 48.9 225.939 52.44 225.939 57.54C225.939 62.76 222.339 66.18 216.219 66.18ZM229.442 93.84C233.582 89.7 240.362 84.96 247.262 80.58C241.382 80.58 234.602 80.88 230.222 81.3L230.042 67.38C241.202 66.48 255.842 66.66 267.002 67.5V80.46C263.162 84.66 256.502 89.64 249.602 93.72C255.782 93.78 263.282 93.48 267.962 93L268.142 106.86C257.462 107.82 240.122 107.64 229.442 106.68V93.84Z" fill="white"/>
<g clip-path="url(#clip0_296_2596)">
<path d="M260.547 53.5838C260.487 53.8201 260.356 54.032 260.171 54.1901C259.986 54.3482 259.756 54.4447 259.513 54.4661L254.526 54.9429L251.688 59.071C251.55 59.2698 251.354 59.4215 251.126 59.5056C250.899 59.5896 250.651 59.6021 250.417 59.5413C250.182 59.4805 249.971 59.3494 249.813 59.1655C249.656 58.9816 249.558 58.7538 249.533 58.5126L249.057 53.5254L244.928 50.6879C244.729 50.5493 244.578 50.3531 244.494 50.1257C244.409 49.8984 244.397 49.6507 244.458 49.416C244.519 49.1814 244.65 48.9709 244.834 48.813C245.017 48.6551 245.245 48.5572 245.486 48.5325L250.474 48.0564L253.311 43.9276C253.45 43.7288 253.646 43.5771 253.873 43.4931C254.101 43.409 254.348 43.3965 254.583 43.4573C254.818 43.5181 255.028 43.6492 255.186 43.8331C255.344 44.017 255.442 44.2448 255.467 44.486L255.943 49.4734L260.071 52.3107C260.273 52.4472 260.427 52.6432 260.512 52.8714C260.598 53.0995 260.61 53.3485 260.547 53.5838Z" fill="white"/>
</g>
<path d="M62.5262 122.642C62.5262 122.642 66.0219 115.771 70.0262 115.642C70.2214 115.636 70.331 115.643 70.5262 115.643C71.0262 115.643 71.4476 115.551 72.0262 115.643C72.6362 115.739 73.0053 115.811 73.5262 116.142C73.9922 116.439 74.288 116.644 74.5262 117.142C74.9558 118.041 74.5083 118.771 74.0262 119.642C73.4209 120.736 72.473 120.826 71.5262 121.642C69.6444 123.266 68.5487 124.178 67.0262 126.142C66.1637 127.255 65.3163 127.765 65.0262 129.142C64.8653 129.907 64.8568 130.38 65.0262 131.142C65.2157 131.995 65.5716 132.397 66.0262 133.142C66.8203 134.444 67.4018 135.112 68.5262 136.142C70.2052 137.681 71.4713 138.161 73.5262 139.142C78.228 141.387 81.3886 141.276 86.5262 142.142C92.3313 143.122 95.6482 143.317 101.526 143.642C111.471 144.194 117.105 144.025 127.026 143.143C134.095 142.514 145.026 140.642 145.026 140.642L175.026 134.642L202.526 125.642L219.026 118.142L233.526 108.642C233.526 108.642 235.452 107.636 236.526 108.142C237.409 108.559 237.877 109.178 238.026 110.142C238.149 110.938 237.026 112.143 237.026 112.143C237.026 112.143 231.592 117.769 227.526 120.642C222.677 124.07 214.026 127.642 214.026 127.642L192.026 136.142L175.026 141.142L150.526 146.142L140.026 147.642L125.026 149.142L107.026 149.642L94.0262 148.642L88.0262 148.142L80.0262 146.642L72.5262 144.142C72.5262 144.142 68.6589 143.019 66.5262 141.642C64.7823 140.517 63.8793 139.716 62.5262 138.142C61.8898 137.402 61.5504 136.966 61.0262 136.142L61.0142 136.123C60.3183 135.03 59.9092 134.387 59.5262 133.142C58.8372 130.903 58.8121 129.374 59.5262 127.142C60.17 125.131 62.5262 122.642 62.5262 122.642Z" fill="white"/>
<path d="M44.615 23.2H57.185V24.805H44.615V23.2ZM49.85 24.25H51.845V29.335H49.85V24.25ZM50.87 15.91C51.86 15.91 52.73 16.04 53.48 16.3C54.24 16.55 54.83 16.91 55.25 17.38C55.67 17.85 55.88 18.4 55.88 19.03C55.88 19.67 55.67 20.225 55.25 20.695C54.83 21.155 54.24 21.515 53.48 21.775C52.73 22.025 51.86 22.15 50.87 22.15C49.88 22.15 49.005 22.025 48.245 21.775C47.495 21.515 46.905 21.155 46.475 20.695C46.055 20.225 45.845 19.67 45.845 19.03C45.845 18.4 46.055 17.85 46.475 17.38C46.905 16.91 47.495 16.55 48.245 16.3C49.005 16.04 49.88 15.91 50.87 15.91ZM50.855 17.485C50.255 17.485 49.73 17.545 49.28 17.665C48.84 17.785 48.5 17.96 48.26 18.19C48.02 18.41 47.9 18.69 47.9 19.03C47.9 19.36 48.02 19.64 48.26 19.87C48.5 20.1 48.84 20.275 49.28 20.395C49.73 20.505 50.255 20.56 50.855 20.56C51.475 20.56 52.005 20.505 52.445 20.395C52.885 20.275 53.225 20.1 53.465 19.87C53.715 19.64 53.84 19.36 53.84 19.03C53.84 18.69 53.715 18.41 53.465 18.19C53.225 17.96 52.885 17.785 52.445 17.665C52.005 17.545 51.475 17.485 50.855 17.485ZM67.9688 15.415H69.9788V29.35H67.9688V15.415ZM59.1638 24.49H60.3938C61.2138 24.49 61.9888 24.48 62.7188 24.46C63.4488 24.43 64.1638 24.385 64.8638 24.325C65.5638 24.255 66.2788 24.155 67.0088 24.025L67.2188 25.63C66.0988 25.83 64.9938 25.965 63.9038 26.035C62.8238 26.095 61.6538 26.125 60.3938 26.125H59.1638V24.49ZM59.1338 16.6H65.6888V21.985H61.1888V25.105H59.1638V20.41H63.6638V18.205H59.1338V16.6ZM75.8019 21.97H88.3569V23.545H75.8019V21.97ZM81.0819 19.885H83.0769V22.585H81.0819V19.885ZM77.3169 19.255H86.9319V20.815H77.3169V19.255ZM77.3169 16.03H86.8569V17.605H79.2969V20.245H77.3169V16.03ZM82.0269 24.235C83.5269 24.235 84.7069 24.46 85.5669 24.91C86.4269 25.35 86.8569 25.98 86.8569 26.8C86.8569 27.61 86.4269 28.235 85.5669 28.675C84.7069 29.125 83.5269 29.35 82.0269 29.35C80.5269 29.35 79.3469 29.125 78.4869 28.675C77.6369 28.235 77.2119 27.61 77.2119 26.8C77.2119 25.98 77.6369 25.35 78.4869 24.91C79.3469 24.46 80.5269 24.235 82.0269 24.235ZM82.0269 25.75C81.4069 25.75 80.8869 25.79 80.4669 25.87C80.0569 25.94 79.7469 26.055 79.5369 26.215C79.3269 26.365 79.2219 26.555 79.2219 26.785C79.2219 27.025 79.3269 27.225 79.5369 27.385C79.7469 27.535 80.0569 27.65 80.4669 27.73C80.8869 27.8 81.4069 27.835 82.0269 27.835C82.6469 27.835 83.1619 27.8 83.5719 27.73C83.9919 27.65 84.3069 27.535 84.5169 27.385C84.7269 27.225 84.8319 27.025 84.8319 26.785C84.8319 26.555 84.7269 26.365 84.5169 26.215C84.3069 26.055 83.9919 25.94 83.5719 25.87C83.1619 25.79 82.6469 25.75 82.0269 25.75ZM90.1107 16.765H92.0757V24.835H90.1107V16.765ZM90.1107 24.325H91.0857C91.9157 24.325 92.7007 24.3 93.4407 24.25C94.1907 24.2 94.9657 24.095 95.7657 23.935L96.0207 25.6C95.1907 25.77 94.3807 25.88 93.5907 25.93C92.8007 25.98 91.9657 26.005 91.0857 26.005H90.1107V24.325ZM99.6357 15.43H101.541V29.32H99.6357V15.43ZM93.9657 19.825H97.1457V21.43H93.9657V19.825ZM96.6957 15.67H98.5557V28.705H96.6957V15.67ZM103.385 21.67H115.955V23.11H103.385V21.67ZM104.795 23.815H114.47V27.115H106.79V28.3H104.81V25.855H112.505V25.165H104.795V23.815ZM104.81 27.865H114.86V29.215H104.81V27.865ZM104.915 15.67H114.425V18.955H106.91V20.08H104.945V17.695H112.46V17.02H104.915V15.67ZM104.945 19.675H114.68V21.025H104.945V19.675ZM130.298 15.445H132.293V23.395H130.298V15.445ZM126.578 25.165H128.273V25.345C128.273 25.835 128.153 26.305 127.913 26.755C127.673 27.195 127.323 27.59 126.863 27.94C126.403 28.29 125.833 28.58 125.153 28.81C124.473 29.05 123.693 29.215 122.813 29.305L122.183 27.835C122.783 27.785 123.318 27.7 123.788 27.58C124.268 27.46 124.683 27.315 125.033 27.145C125.393 26.975 125.683 26.79 125.903 26.59C126.133 26.39 126.303 26.185 126.413 25.975C126.523 25.755 126.578 25.545 126.578 25.345V25.165ZM126.953 25.165H128.648V25.345C128.648 25.575 128.733 25.82 128.903 26.08C129.083 26.34 129.348 26.59 129.698 26.83C130.058 27.07 130.513 27.28 131.063 27.46C131.623 27.64 132.278 27.76 133.028 27.82L132.398 29.29C131.498 29.21 130.708 29.045 130.028 28.795C129.358 28.555 128.793 28.26 128.333 27.91C127.873 27.55 127.528 27.15 127.298 26.71C127.068 26.27 126.953 25.815 126.953 25.345V25.165ZM122.723 24.175H132.488V25.675H122.723V24.175ZM126.608 23.035H128.603V24.88H126.608V23.035ZM121.448 15.985H123.428V17.695H126.218V15.985H128.198V22.33H121.448V15.985ZM123.428 19.225V20.755H126.218V19.225H123.428ZM144.486 15.43H146.391V22.465H144.486V15.43ZM142.776 18.205H144.996V19.78H142.776V18.205ZM141.456 15.685H143.331V22.435H141.456V15.685ZM135.096 16.18H137.091V21.34H135.096V16.18ZM135.096 20.425H136.041C136.841 20.425 137.606 20.405 138.336 20.365C139.066 20.315 139.831 20.21 140.631 20.05L140.811 21.655C139.981 21.805 139.186 21.905 138.426 21.955C137.676 21.995 136.881 22.015 136.041 22.015H135.096V20.425ZM136.941 22.975H146.391V26.755H138.966V28.435H136.971V25.315H144.396V24.52H136.941V22.975ZM136.971 27.625H146.841V29.185H136.971V27.625ZM152.349 16.735H158.994V25.945H152.349V16.735ZM157.029 18.31H154.314V24.385H157.029V18.31ZM160.794 15.445H162.804V29.335H160.794V15.445ZM162.369 20.68H164.814V22.315H162.369V20.68ZM169.973 17.005H171.848C171.848 17.995 171.773 18.94 171.623 19.84C171.483 20.74 171.228 21.59 170.858 22.39C170.488 23.19 169.973 23.945 169.313 24.655C168.653 25.355 167.808 26.005 166.778 26.605L165.653 25.21C166.513 24.71 167.218 24.185 167.768 23.635C168.328 23.075 168.768 22.475 169.088 21.835C169.408 21.185 169.633 20.49 169.763 19.75C169.903 19.01 169.973 18.21 169.973 17.35V17.005ZM166.433 17.005H170.573V18.58H166.433V17.005ZM169.988 20.17V21.64L165.968 22.06L165.743 20.38L169.988 20.17ZM170.708 20.68H173.543V22.27H170.708V20.68ZM175.778 15.43H177.683V29.32H175.778V15.43ZM172.883 15.73H174.743V28.705H172.883V15.73ZM180.277 21.67H181.477C182.427 21.67 183.262 21.665 183.982 21.655C184.712 21.635 185.387 21.6 186.007 21.55C186.637 21.5 187.272 21.425 187.912 21.325L188.107 22.885C187.447 22.985 186.792 23.065 186.142 23.125C185.502 23.175 184.807 23.21 184.057 23.23C183.307 23.24 182.447 23.245 181.477 23.245H180.277V21.67ZM180.277 16.39H186.967V17.98H182.257V22.3H180.277V16.39ZM181.642 19.03H186.562V20.575H181.642V19.03ZM189.067 15.445H191.062V23.845H189.067V15.445ZM186.367 24.055C187.347 24.055 188.192 24.16 188.902 24.37C189.612 24.58 190.157 24.88 190.537 25.27C190.927 25.66 191.122 26.135 191.122 26.695C191.122 27.535 190.697 28.185 189.847 28.645C188.997 29.105 187.837 29.335 186.367 29.335C184.897 29.335 183.737 29.105 182.887 28.645C182.047 28.185 181.627 27.535 181.627 26.695C181.627 25.865 182.047 25.22 182.887 24.76C183.737 24.29 184.897 24.055 186.367 24.055ZM186.367 25.57C185.767 25.57 185.262 25.61 184.852 25.69C184.442 25.77 184.132 25.895 183.922 26.065C183.712 26.235 183.607 26.445 183.607 26.695C183.607 26.945 183.712 27.155 183.922 27.325C184.132 27.485 184.442 27.605 184.852 27.685C185.262 27.765 185.767 27.805 186.367 27.805C186.977 27.805 187.482 27.765 187.882 27.685C188.292 27.605 188.602 27.485 188.812 27.325C189.032 27.155 189.142 26.945 189.142 26.695C189.142 26.445 189.032 26.235 188.812 26.065C188.602 25.895 188.292 25.77 187.882 25.69C187.482 25.61 186.977 25.57 186.367 25.57ZM197.08 16.72H204.745V18.295H197.08V16.72ZM196.93 26.155L196.72 24.535C197.52 24.535 198.395 24.53 199.345 24.52C200.305 24.5 201.28 24.465 202.27 24.415C203.27 24.355 204.23 24.27 205.15 24.16L205.255 25.6C204.315 25.76 203.35 25.88 202.36 25.96C201.38 26.04 200.425 26.095 199.495 26.125C198.575 26.145 197.72 26.155 196.93 26.155ZM198.265 17.965H200.2V24.97H198.265V17.965ZM201.625 17.965H203.545V24.97H201.625V17.965ZM205.765 15.445H207.775V29.335H205.765V15.445ZM207.34 20.695H209.785V22.345H207.34V20.695ZM212.169 22.585H221.934V24.16H212.169V22.585ZM210.699 26.125H223.284V27.745H210.699V26.125ZM212.169 16.45H221.829V18.04H214.194V23.02H212.169V16.45ZM213.579 19.51H221.514V21.055H213.579V19.51ZM234.158 15.43H236.153V29.365H234.158V15.43ZM230.423 19.735H234.743V21.34H230.423V19.735ZM225.203 16.915H227.183V25.555H225.203V16.915ZM225.203 24.445H226.388C227.048 24.445 227.713 24.43 228.383 24.4C229.063 24.36 229.753 24.3 230.453 24.22C231.153 24.14 231.858 24.03 232.568 23.89L232.778 25.525C232.038 25.675 231.308 25.795 230.588 25.885C229.868 25.965 229.158 26.025 228.458 26.065C227.758 26.095 227.068 26.11 226.388 26.11H225.203V24.445Z" fill="white"/>
<path d="M283.125 106.25C283.423 106.25 283.71 106.131 283.92 105.92C284.131 105.71 284.25 105.423 284.25 105.125C284.25 104.827 284.131 104.54 283.92 104.33C283.71 104.119 283.423 104 283.125 104C282.827 104 282.54 104.119 282.33 104.33C282.119 104.54 282 104.827 282 105.125C282 105.423 282.119 105.71 282.33 105.92C282.54 106.131 282.827 106.25 283.125 106.25Z" fill="#A2DDFF"/>
<path d="M252.125 160.25C252.423 160.25 252.71 160.131 252.92 159.92C253.131 159.71 253.25 159.423 253.25 159.125C253.25 158.827 253.131 158.54 252.92 158.33C252.71 158.119 252.423 158 252.125 158C251.827 158 251.54 158.119 251.33 158.33C251.119 158.54 251 158.827 251 159.125C251 159.423 251.119 159.71 251.33 159.92C251.54 160.131 251.827 160.25 252.125 160.25Z" fill="#A2DDFF"/>
<path d="M113.125 2.25C113.423 2.25 113.71 2.13147 113.92 1.9205C114.131 1.70952 114.25 1.42337 114.25 1.125C114.25 0.826631 114.131 0.540483 113.92 0.329505C113.71 0.118526 113.423 0 113.125 0C112.827 0 112.54 0.118526 112.33 0.329505C112.119 0.540483 112 0.826631 112 1.125C112 1.42337 112.119 1.70952 112.33 1.9205C112.54 2.13147 112.827 2.25 113.125 2.25Z" fill="#A2DDFF"/>
<path d="M50.125 161.25C50.4234 161.25 50.7095 161.131 50.9205 160.92C51.1315 160.71 51.25 160.423 51.25 160.125C51.25 159.827 51.1315 159.54 50.9205 159.33C50.7095 159.119 50.4234 159 50.125 159C49.8266 159 49.5405 159.119 49.3295 159.33C49.1185 159.54 49 159.827 49 160.125C49 160.423 49.1185 160.71 49.3295 160.92C49.5405 161.131 49.8266 161.25 50.125 161.25Z" fill="#A2DDFF"/>
<path d="M224.125 4.25C224.423 4.25 224.71 4.13147 224.92 3.9205C225.131 3.70952 225.25 3.42337 225.25 3.125C225.25 2.82663 225.131 2.54048 224.92 2.3295C224.71 2.11853 224.423 2 224.125 2C223.827 2 223.54 2.11853 223.33 2.3295C223.119 2.54048 223 2.82663 223 3.125C223 3.42337 223.119 3.70952 223.33 3.9205C223.54 4.13147 223.827 4.25 224.125 4.25Z" fill="#A2DDFF"/>
<path d="M36.125 32.25C36.4234 32.25 36.7095 32.1315 36.9205 31.9205C37.1315 31.7095 37.25 31.4234 37.25 31.125C37.25 30.8266 37.1315 30.5405 36.9205 30.3295C36.7095 30.1185 36.4234 30 36.125 30C35.8266 30 35.5405 30.1185 35.3295 30.3295C35.1185 30.5405 35 30.8266 35 31.125C35 31.4234 35.1185 31.7095 35.3295 31.9205C35.5405 32.1315 35.8266 32.25 36.125 32.25Z" fill="#A2DDFF"/>
<path d="M1.125 124.25C1.42337 124.25 1.70952 124.131 1.9205 123.92C2.13147 123.71 2.25 123.423 2.25 123.125C2.25 122.827 2.13147 122.54 1.9205 122.33C1.70952 122.119 1.42337 122 1.125 122C0.826631 122 0.540483 122.119 0.329505 122.33C0.118526 122.54 0 122.827 0 123.125C0 123.423 0.118526 123.71 0.329505 123.92C0.540483 124.131 0.826631 124.25 1.125 124.25Z" fill="#A2DDFF"/>
<path d="M168.125 178.25C168.423 178.25 168.71 178.131 168.92 177.92C169.131 177.71 169.25 177.423 169.25 177.125C169.25 176.827 169.131 176.54 168.92 176.33C168.71 176.119 168.423 176 168.125 176C167.827 176 167.54 176.119 167.33 176.33C167.119 176.54 167 176.827 167 177.125C167 177.423 167.119 177.71 167.33 177.92C167.54 178.131 167.827 178.25 168.125 178.25Z" fill="#A2DDFF"/>
<defs>
<clipPath id="clip0_296_2596">
<rect width="19" height="19" fill="white" transform="translate(243 42)"/>
</clipPath>
</defs>
</svg>
